# xmcd
#
# Track frame offsets:
#	150
#	20316
#	36065
#	50057
#	68575
#	79059
#	100130
#	114375
#	131511
#	142535
#	159834
#	176241
#	188509
#	205599
#	223982
#	241749
#	257627
#	276450
#
# Disc length: 3889 seconds
#
# Revision: 0
# Processed by: cddbd v1.5.1PL0 Copyright (c) Steve Scherf et al.
# Submitted via: audiograbber 1.83.01
#
DISCID=f00f2f12
DTITLE=Πλούταρχος Γιάννης - Πιο μονοπάτι
DYEAR=2003
DGENRE=Greek
TTITLE0=πιό μονοπάτι
TTITLE1=αν φταίς εσύ
TTITLE2=πιο στόμα καίει τώρα τα χείλη σου
TTITLE3=σάββατο έκλαψα για σένα
TTITLE4=δεν είναι ο έρωτας
TTITLE5=τις φωτογραφίες σου κρατώ
TTITLE6=προσπάθησα
TTITLE7=δεν είναι λύση ο χωρισμός
TTITLE8=και αν αγάπησα τρελλή
TTITLE9=έψαχνα χρόνια να σε βρω
TTITLE10=μόνος αργά μεσάνυχτα
TTITLE11=φοβάμαι εμένα
TTITLE12=μη γυρίσεις ξανά
TTITLE13=καρδιά μου ήσουν γυάλινη
TTITLE14=γέλα ποτέ μην κλαίς
TTITLE15=μήπως σου ζήτησα πολλά
TTITLE16=καμμιά δεν μοιάζει με σένα μάτια μου
TTITLE17=και ο νούς μου πάλι ξενυχτά
EXTD=
EXTT0=
EXTT1=
EXTT2=
EXTT3=
EXTT4=
EXTT5=
EXTT6=
EXTT7=
EXTT8=
EXTT9=
EXTT10=
EXTT11=
EXTT12=
EXTT13=
EXTT14=
EXTT15=
EXTT16=
EXTT17=
PLAYORDER=
